<svg xmlns="http://www.w3.org/2000/svg" xmlns:xlink="http://www.w3.org/1999/xlink" width="291" height="292" viewBox="0 0 291 292">
  <defs>
    <clipPath id="clip-Web_1920_2">
      <rect width="291" height="292"/>
    </clipPath>
  </defs>
  <g id="Web_1920_2" data-name="Web 1920 – 2" clip-path="url(#clip-Web_1920_2)">
    <g id="Group_1" data-name="Group 1" transform="translate(17 -8)">
      <g id="Group_1-2" data-name="Group 1" transform="translate(-261 -386)">
        <path id="Exclusion_1" data-name="Exclusion 1" d="M-671.389,475.9c-4.5,0-8.007-.063-10.428-.186a6.585,6.585,0,0,1-5.052-2.551c-1.805-2.579-.9-6.2-.891-6.234,2-6.191,49.07-151.721,52.267-160.943,2.927-8.444,10.1-8.872,11.5-8.872.166,0,.257.006.258.006.135,0,13.881-.118,26.461-.118,7.409,0,13,.04,16.6.118A9.568,9.568,0,0,1-576,298.8a11.085,11.085,0,0,1,2.879,3.015,14.161,14.161,0,0,1,1.866,4.171c.514,1.532,51.447,153.3,53.594,161.314.615,2.3.391,4.185-.666,5.614-1.94,2.622-6.079,2.8-6.12,2.8h-25.966a9.179,9.179,0,0,1-5.045-1.5,9.852,9.852,0,0,1-2.935-3.165,13.739,13.739,0,0,1-1.7-4.559c-.056-.24-5.628-24.1-7.634-28.679a6.772,6.772,0,0,0-6.242-4.433c-.043,0-4.438-.112-8.575-.112-2.442,0-4.335.038-5.625.112-.078,0-.156-.006-.234-.006-3,0-5.31,2.759-5.333,2.787s-1.68,2.785-5.652,8.257c-1.187,1.636-2.467,2.465-3.806,2.465-2.281,0-3.958-2.441-3.975-2.465a79.578,79.578,0,0,1-5.791-8.052c-1.6-2.777-3.724-2.993-4.335-2.993a1.81,1.81,0,0,0-.187.008h-.012c-.415,0-4.162-.017-7.795-.017-2.259,0-4.046.006-5.312.017-2.923.093-4.391,1.171-5.107,2.058a3.919,3.919,0,0,0-.863,1.923c-.043.165-4.372,16.628-7.6,27.233-.743,4.5-2.676,7.711-5.746,9.558a11.189,11.189,0,0,1-5.519,1.574c-.131,0-.211,0-.225,0C-655.744,475.715-663.713,475.9-671.389,475.9Zm45.819-84.555a16.018,16.018,0,0,0-16,16,16.018,16.018,0,0,0,16,16h45a16.017,16.017,0,0,0,16-16,16.018,16.018,0,0,0-16-16Zm22.5-55.344a5.029,5.029,0,0,0-4.278,2.41l-12.628,36.345a5.008,5.008,0,0,0-.078,5.044,5.007,5.007,0,0,0,4.355,2.545h25.258a5.008,5.008,0,0,0,4.356-2.545,5,5,0,0,0-.078-5.044l-12.63-36.345A5.029,5.029,0,0,0-603.071,336Z" transform="translate(989.571 127.656)" fill="#ecbe08"/>
        <path id="Path_5" data-name="Path 5" d="M-1.607,5.654c.805-1.331,4.736-1.331,5.541,0L14.161,20.7a2.069,2.069,0,0,1-1.77,3.141H-11.064a2.069,2.069,0,0,1-1.8-1.054,2.069,2.069,0,0,1,.033-2.087Z" transform="translate(387.663 583.075) rotate(180)" fill="#ecbe08"/>
        <circle id="Ellipse_3" data-name="Ellipse 3" cx="9.5" cy="9.5" r="9.5" transform="translate(357 526)" fill="#ecbe08"/>
        <circle id="Ellipse_4" data-name="Ellipse 4" cx="9.5" cy="9.5" r="9.5" transform="translate(397 526)" fill="#ecbe08"/>
      </g>
    </g>
    <text id="Cinemas" transform="translate(41 248)" fill="#eabc00" font-size="20" font-family="SegoeUI, Segoe UI" letter-spacing="1em"><tspan x="0" y="0">CINEMAS</tspan></text>
  </g>
</svg>
